<mxfile host="app.diagrams.net" modified="2024-02-28T13:28:48.285Z" agent="Mozilla/5.0 (Windows NT 10.0; Win64; x64) AppleWebKit/537.36 (KHTML, like Gecko) Chrome/119.0.0.0 Safari/537.36" etag="GUNN4v2uWKg3RFl7N3hY" version="23.1.7" type="github">
  <diagram name="第 1 页" id="O520n5k4d-XmnUUx3r3Z">
    <mxGraphModel dx="2263" dy="852" grid="1" gridSize="10" guides="1" tooltips="1" connect="1" arrows="1" fold="1" page="1" pageScale="1" pageWidth="827" pageHeight="1169" math="0" shadow="0">
      <root>
        <mxCell id="0" />
        <mxCell id="1" parent="0" />
        <mxCell id="6Zg3kNEFJYCapv534Jjk-8" style="edgeStyle=orthogonalEdgeStyle;rounded=0;orthogonalLoop=1;jettySize=auto;html=1;exitX=0.5;exitY=0;exitDx=0;exitDy=0;entryX=0.5;entryY=1;entryDx=0;entryDy=0;endArrow=none;endFill=0;" parent="1" source="6Zg3kNEFJYCapv534Jjk-3" target="6Zg3kNEFJYCapv534Jjk-4" edge="1">
          <mxGeometry relative="1" as="geometry" />
        </mxCell>
        <mxCell id="6Zg3kNEFJYCapv534Jjk-9" style="edgeStyle=orthogonalEdgeStyle;rounded=0;orthogonalLoop=1;jettySize=auto;html=1;exitX=0;exitY=0.5;exitDx=0;exitDy=0;endArrow=none;endFill=0;" parent="1" source="6Zg3kNEFJYCapv534Jjk-3" target="6Zg3kNEFJYCapv534Jjk-5" edge="1">
          <mxGeometry relative="1" as="geometry" />
        </mxCell>
        <mxCell id="6Zg3kNEFJYCapv534Jjk-11" style="rounded=0;orthogonalLoop=1;jettySize=auto;html=1;exitX=0;exitY=1;exitDx=0;exitDy=0;entryX=1;entryY=0;entryDx=0;entryDy=0;endArrow=none;endFill=0;" parent="1" source="6Zg3kNEFJYCapv534Jjk-3" target="6Zg3kNEFJYCapv534Jjk-7" edge="1">
          <mxGeometry relative="1" as="geometry" />
        </mxCell>
        <mxCell id="6Zg3kNEFJYCapv534Jjk-17" style="edgeStyle=orthogonalEdgeStyle;rounded=0;orthogonalLoop=1;jettySize=auto;html=1;exitX=1;exitY=0.5;exitDx=0;exitDy=0;entryX=0;entryY=0.5;entryDx=0;entryDy=0;endArrow=none;endFill=0;" parent="1" source="6Zg3kNEFJYCapv534Jjk-3" target="6Zg3kNEFJYCapv534Jjk-13" edge="1">
          <mxGeometry relative="1" as="geometry" />
        </mxCell>
        <mxCell id="6Zg3kNEFJYCapv534Jjk-26" value="&lt;font style=&quot;font-size: 18px;&quot;&gt;1&lt;/font&gt;" style="edgeLabel;html=1;align=center;verticalAlign=middle;resizable=0;points=[];" parent="6Zg3kNEFJYCapv534Jjk-17" vertex="1" connectable="0">
          <mxGeometry x="0.0867" y="2" relative="1" as="geometry">
            <mxPoint as="offset" />
          </mxGeometry>
        </mxCell>
        <mxCell id="6Zg3kNEFJYCapv534Jjk-38" style="rounded=0;orthogonalLoop=1;jettySize=auto;html=1;exitX=0;exitY=0;exitDx=0;exitDy=0;entryX=1;entryY=1;entryDx=0;entryDy=0;endArrow=none;endFill=0;" parent="1" source="6Zg3kNEFJYCapv534Jjk-3" target="6Zg3kNEFJYCapv534Jjk-6" edge="1">
          <mxGeometry relative="1" as="geometry" />
        </mxCell>
        <mxCell id="6Zg3kNEFJYCapv534Jjk-42" style="edgeStyle=orthogonalEdgeStyle;rounded=0;orthogonalLoop=1;jettySize=auto;html=1;exitX=0.5;exitY=1;exitDx=0;exitDy=0;endArrow=none;endFill=0;" parent="1" source="6Zg3kNEFJYCapv534Jjk-3" target="6Zg3kNEFJYCapv534Jjk-41" edge="1">
          <mxGeometry relative="1" as="geometry" />
        </mxCell>
        <mxCell id="cuGuRo7syj6w-kKDCdX4-1" value="&lt;font style=&quot;font-size: 18px;&quot;&gt;1&lt;/font&gt;" style="edgeLabel;html=1;align=center;verticalAlign=middle;resizable=0;points=[];" parent="6Zg3kNEFJYCapv534Jjk-42" vertex="1" connectable="0">
          <mxGeometry x="0.1048" y="-4" relative="1" as="geometry">
            <mxPoint as="offset" />
          </mxGeometry>
        </mxCell>
        <mxCell id="Qvd4GWLs-rVqjNRkkyem-2" style="rounded=0;orthogonalLoop=1;jettySize=auto;html=1;exitX=1;exitY=0;exitDx=0;exitDy=0;entryX=0;entryY=1;entryDx=0;entryDy=0;endArrow=none;endFill=0;" edge="1" parent="1" source="6Zg3kNEFJYCapv534Jjk-3" target="Qvd4GWLs-rVqjNRkkyem-1">
          <mxGeometry relative="1" as="geometry" />
        </mxCell>
        <mxCell id="6Zg3kNEFJYCapv534Jjk-3" value="&lt;font style=&quot;font-size: 18px;&quot;&gt;存储节点&lt;/font&gt;" style="rounded=0;whiteSpace=wrap;html=1;" parent="1" vertex="1">
          <mxGeometry x="180" y="270" width="120" height="60" as="geometry" />
        </mxCell>
        <mxCell id="6Zg3kNEFJYCapv534Jjk-4" value="&lt;font style=&quot;font-size: 18px;&quot;&gt;节点标识符&lt;/font&gt;" style="ellipse;whiteSpace=wrap;html=1;" parent="1" vertex="1">
          <mxGeometry x="180" y="130" width="120" height="80" as="geometry" />
        </mxCell>
        <mxCell id="6Zg3kNEFJYCapv534Jjk-5" value="&lt;font style=&quot;font-size: 18px;&quot;&gt;节点端口号&lt;/font&gt;" style="ellipse;whiteSpace=wrap;html=1;" parent="1" vertex="1">
          <mxGeometry x="-10" y="260" width="120" height="80" as="geometry" />
        </mxCell>
        <mxCell id="6Zg3kNEFJYCapv534Jjk-6" value="&lt;font style=&quot;font-size: 18px;&quot;&gt;节点 IP 地址&lt;/font&gt;" style="ellipse;whiteSpace=wrap;html=1;" parent="1" vertex="1">
          <mxGeometry x="10" y="120" width="120" height="80" as="geometry" />
        </mxCell>
        <mxCell id="6Zg3kNEFJYCapv534Jjk-7" value="&lt;font style=&quot;font-size: 18px;&quot;&gt;节点当前状态&lt;/font&gt;" style="ellipse;whiteSpace=wrap;html=1;" parent="1" vertex="1">
          <mxGeometry x="10" y="390" width="120" height="80" as="geometry" />
        </mxCell>
        <mxCell id="6Zg3kNEFJYCapv534Jjk-19" style="edgeStyle=orthogonalEdgeStyle;rounded=0;orthogonalLoop=1;jettySize=auto;html=1;exitX=0.5;exitY=0;exitDx=0;exitDy=0;entryX=0.5;entryY=1;entryDx=0;entryDy=0;endArrow=none;endFill=0;" parent="1" source="6Zg3kNEFJYCapv534Jjk-12" target="6Zg3kNEFJYCapv534Jjk-15" edge="1">
          <mxGeometry relative="1" as="geometry" />
        </mxCell>
        <mxCell id="6Zg3kNEFJYCapv534Jjk-22" style="rounded=0;orthogonalLoop=1;jettySize=auto;html=1;exitX=0;exitY=1;exitDx=0;exitDy=0;endArrow=none;endFill=0;" parent="1" source="6Zg3kNEFJYCapv534Jjk-12" target="6Zg3kNEFJYCapv534Jjk-14" edge="1">
          <mxGeometry relative="1" as="geometry" />
        </mxCell>
        <mxCell id="6Zg3kNEFJYCapv534Jjk-23" style="edgeStyle=orthogonalEdgeStyle;rounded=0;orthogonalLoop=1;jettySize=auto;html=1;exitX=0.5;exitY=1;exitDx=0;exitDy=0;entryX=0.5;entryY=0;entryDx=0;entryDy=0;endArrow=none;endFill=0;" parent="1" source="6Zg3kNEFJYCapv534Jjk-12" target="6Zg3kNEFJYCapv534Jjk-16" edge="1">
          <mxGeometry relative="1" as="geometry" />
        </mxCell>
        <mxCell id="6Zg3kNEFJYCapv534Jjk-28" style="edgeStyle=orthogonalEdgeStyle;rounded=0;orthogonalLoop=1;jettySize=auto;html=1;exitX=1;exitY=0.5;exitDx=0;exitDy=0;entryX=0;entryY=0.5;entryDx=0;entryDy=0;endArrow=none;endFill=0;" parent="1" source="6Zg3kNEFJYCapv534Jjk-12" target="6Zg3kNEFJYCapv534Jjk-25" edge="1">
          <mxGeometry relative="1" as="geometry" />
        </mxCell>
        <mxCell id="6Zg3kNEFJYCapv534Jjk-30" value="&lt;font style=&quot;font-size: 18px;&quot;&gt;1&lt;/font&gt;" style="edgeLabel;html=1;align=center;verticalAlign=middle;resizable=0;points=[];" parent="6Zg3kNEFJYCapv534Jjk-28" vertex="1" connectable="0">
          <mxGeometry x="-0.0593" relative="1" as="geometry">
            <mxPoint as="offset" />
          </mxGeometry>
        </mxCell>
        <mxCell id="6Zg3kNEFJYCapv534Jjk-12" value="&lt;font style=&quot;font-size: 18px;&quot;&gt;连接客户端&lt;/font&gt;" style="rounded=0;whiteSpace=wrap;html=1;" parent="1" vertex="1">
          <mxGeometry x="570" y="270" width="120" height="60" as="geometry" />
        </mxCell>
        <mxCell id="6Zg3kNEFJYCapv534Jjk-18" style="edgeStyle=orthogonalEdgeStyle;rounded=0;orthogonalLoop=1;jettySize=auto;html=1;exitX=1;exitY=0.5;exitDx=0;exitDy=0;entryX=0;entryY=0.5;entryDx=0;entryDy=0;endArrow=none;endFill=0;" parent="1" source="6Zg3kNEFJYCapv534Jjk-13" target="6Zg3kNEFJYCapv534Jjk-12" edge="1">
          <mxGeometry relative="1" as="geometry" />
        </mxCell>
        <mxCell id="6Zg3kNEFJYCapv534Jjk-27" value="&lt;font style=&quot;font-size: 18px;&quot;&gt;N&lt;/font&gt;" style="edgeLabel;html=1;align=center;verticalAlign=middle;resizable=0;points=[];" parent="6Zg3kNEFJYCapv534Jjk-18" vertex="1" connectable="0">
          <mxGeometry x="-0.1926" y="-1" relative="1" as="geometry">
            <mxPoint as="offset" />
          </mxGeometry>
        </mxCell>
        <mxCell id="6Zg3kNEFJYCapv534Jjk-13" value="&lt;span style=&quot;font-size: 18px;&quot;&gt;连接&lt;/span&gt;" style="rhombus;whiteSpace=wrap;html=1;" parent="1" vertex="1">
          <mxGeometry x="400" y="260" width="80" height="80" as="geometry" />
        </mxCell>
        <mxCell id="6Zg3kNEFJYCapv534Jjk-14" value="&lt;font style=&quot;font-size: 18px;&quot;&gt;用户名&lt;/font&gt;" style="ellipse;whiteSpace=wrap;html=1;" parent="1" vertex="1">
          <mxGeometry x="420" y="410" width="120" height="80" as="geometry" />
        </mxCell>
        <mxCell id="6Zg3kNEFJYCapv534Jjk-15" value="&lt;font style=&quot;font-size: 18px;&quot;&gt;连接标识符&lt;/font&gt;" style="ellipse;whiteSpace=wrap;html=1;" parent="1" vertex="1">
          <mxGeometry x="570" y="130" width="120" height="80" as="geometry" />
        </mxCell>
        <mxCell id="6Zg3kNEFJYCapv534Jjk-16" value="&lt;font style=&quot;font-size: 18px;&quot;&gt;密码&lt;/font&gt;" style="ellipse;whiteSpace=wrap;html=1;" parent="1" vertex="1">
          <mxGeometry x="570" y="410" width="120" height="80" as="geometry" />
        </mxCell>
        <mxCell id="6Zg3kNEFJYCapv534Jjk-35" style="rounded=0;orthogonalLoop=1;jettySize=auto;html=1;exitX=0;exitY=1;exitDx=0;exitDy=0;entryX=1;entryY=0;entryDx=0;entryDy=0;endArrow=none;endFill=0;" parent="1" source="6Zg3kNEFJYCapv534Jjk-24" target="6Zg3kNEFJYCapv534Jjk-33" edge="1">
          <mxGeometry relative="1" as="geometry" />
        </mxCell>
        <mxCell id="6Zg3kNEFJYCapv534Jjk-36" style="edgeStyle=orthogonalEdgeStyle;rounded=0;orthogonalLoop=1;jettySize=auto;html=1;exitX=0.5;exitY=1;exitDx=0;exitDy=0;endArrow=none;endFill=0;" parent="1" source="6Zg3kNEFJYCapv534Jjk-24" target="6Zg3kNEFJYCapv534Jjk-34" edge="1">
          <mxGeometry relative="1" as="geometry" />
        </mxCell>
        <mxCell id="6Zg3kNEFJYCapv534Jjk-37" style="edgeStyle=orthogonalEdgeStyle;rounded=0;orthogonalLoop=1;jettySize=auto;html=1;exitX=0.5;exitY=0;exitDx=0;exitDy=0;entryX=0.5;entryY=1;entryDx=0;entryDy=0;endArrow=none;endFill=0;" parent="1" source="6Zg3kNEFJYCapv534Jjk-24" target="6Zg3kNEFJYCapv534Jjk-32" edge="1">
          <mxGeometry relative="1" as="geometry" />
        </mxCell>
        <mxCell id="Qvd4GWLs-rVqjNRkkyem-8" style="edgeStyle=orthogonalEdgeStyle;rounded=0;orthogonalLoop=1;jettySize=auto;html=1;exitX=1;exitY=0.5;exitDx=0;exitDy=0;entryX=0;entryY=0.5;entryDx=0;entryDy=0;endArrow=none;endFill=0;" edge="1" parent="1" source="6Zg3kNEFJYCapv534Jjk-24" target="Qvd4GWLs-rVqjNRkkyem-7">
          <mxGeometry relative="1" as="geometry" />
        </mxCell>
        <mxCell id="6Zg3kNEFJYCapv534Jjk-24" value="&lt;font style=&quot;font-size: 18px;&quot;&gt;连接日志&lt;/font&gt;" style="rounded=0;whiteSpace=wrap;html=1;" parent="1" vertex="1">
          <mxGeometry x="930" y="270" width="120" height="60" as="geometry" />
        </mxCell>
        <mxCell id="6Zg3kNEFJYCapv534Jjk-29" style="edgeStyle=orthogonalEdgeStyle;rounded=0;orthogonalLoop=1;jettySize=auto;html=1;exitX=1;exitY=0.5;exitDx=0;exitDy=0;entryX=0;entryY=0.5;entryDx=0;entryDy=0;endArrow=none;endFill=0;" parent="1" source="6Zg3kNEFJYCapv534Jjk-25" target="6Zg3kNEFJYCapv534Jjk-24" edge="1">
          <mxGeometry relative="1" as="geometry" />
        </mxCell>
        <mxCell id="6Zg3kNEFJYCapv534Jjk-31" value="&lt;font style=&quot;font-size: 18px;&quot;&gt;N&lt;/font&gt;" style="edgeLabel;html=1;align=center;verticalAlign=middle;resizable=0;points=[];" parent="6Zg3kNEFJYCapv534Jjk-29" vertex="1" connectable="0">
          <mxGeometry x="0.0095" y="-3" relative="1" as="geometry">
            <mxPoint as="offset" />
          </mxGeometry>
        </mxCell>
        <mxCell id="6Zg3kNEFJYCapv534Jjk-25" value="&lt;font style=&quot;font-size: 18px;&quot;&gt;拥有&lt;/font&gt;" style="rhombus;whiteSpace=wrap;html=1;" parent="1" vertex="1">
          <mxGeometry x="780" y="260" width="80" height="80" as="geometry" />
        </mxCell>
        <mxCell id="6Zg3kNEFJYCapv534Jjk-32" value="&lt;font style=&quot;font-size: 18px;&quot;&gt;日志标识符&lt;/font&gt;" style="ellipse;whiteSpace=wrap;html=1;" parent="1" vertex="1">
          <mxGeometry x="930" y="130" width="120" height="80" as="geometry" />
        </mxCell>
        <mxCell id="6Zg3kNEFJYCapv534Jjk-33" value="&lt;font style=&quot;font-size: 18px;&quot;&gt;日志时间戳&lt;/font&gt;" style="ellipse;whiteSpace=wrap;html=1;" parent="1" vertex="1">
          <mxGeometry x="790" y="410" width="120" height="80" as="geometry" />
        </mxCell>
        <mxCell id="6Zg3kNEFJYCapv534Jjk-34" value="&lt;div&gt;&lt;font style=&quot;font-size: 18px;&quot;&gt;连接状态&lt;/font&gt;&lt;/div&gt;&lt;div&gt;&lt;font style=&quot;font-size: 18px;&quot;&gt;（成功/失&lt;/font&gt;&lt;span style=&quot;font-size: medium; background-color: initial;&quot;&gt;败）&lt;/span&gt;&lt;/div&gt;" style="ellipse;whiteSpace=wrap;html=1;" parent="1" vertex="1">
          <mxGeometry x="930" y="410" width="120" height="80" as="geometry" />
        </mxCell>
        <mxCell id="6Zg3kNEFJYCapv534Jjk-47" style="edgeStyle=orthogonalEdgeStyle;rounded=0;orthogonalLoop=1;jettySize=auto;html=1;exitX=1;exitY=0.5;exitDx=0;exitDy=0;endArrow=none;endFill=0;" parent="1" source="6Zg3kNEFJYCapv534Jjk-40" target="6Zg3kNEFJYCapv534Jjk-45" edge="1">
          <mxGeometry relative="1" as="geometry" />
        </mxCell>
        <mxCell id="Qvd4GWLs-rVqjNRkkyem-5" style="rounded=0;orthogonalLoop=1;jettySize=auto;html=1;exitX=0;exitY=1;exitDx=0;exitDy=0;entryX=1;entryY=0;entryDx=0;entryDy=0;endArrow=none;endFill=0;" edge="1" parent="1" source="6Zg3kNEFJYCapv534Jjk-40" target="Qvd4GWLs-rVqjNRkkyem-3">
          <mxGeometry relative="1" as="geometry" />
        </mxCell>
        <mxCell id="Qvd4GWLs-rVqjNRkkyem-6" style="edgeStyle=orthogonalEdgeStyle;rounded=0;orthogonalLoop=1;jettySize=auto;html=1;exitX=0.5;exitY=1;exitDx=0;exitDy=0;entryX=0.5;entryY=0;entryDx=0;entryDy=0;endArrow=none;endFill=0;" edge="1" parent="1" source="6Zg3kNEFJYCapv534Jjk-40" target="Qvd4GWLs-rVqjNRkkyem-4">
          <mxGeometry relative="1" as="geometry" />
        </mxCell>
        <mxCell id="6Zg3kNEFJYCapv534Jjk-40" value="&lt;font style=&quot;font-size: 18px;&quot;&gt;存储节点日志&lt;/font&gt;" style="rounded=0;whiteSpace=wrap;html=1;" parent="1" vertex="1">
          <mxGeometry x="180" y="550" width="120" height="60" as="geometry" />
        </mxCell>
        <mxCell id="6Zg3kNEFJYCapv534Jjk-43" style="edgeStyle=orthogonalEdgeStyle;rounded=0;orthogonalLoop=1;jettySize=auto;html=1;exitX=0.5;exitY=1;exitDx=0;exitDy=0;entryX=0.5;entryY=0;entryDx=0;entryDy=0;endArrow=none;endFill=0;" parent="1" source="6Zg3kNEFJYCapv534Jjk-41" target="6Zg3kNEFJYCapv534Jjk-40" edge="1">
          <mxGeometry relative="1" as="geometry" />
        </mxCell>
        <mxCell id="cuGuRo7syj6w-kKDCdX4-2" value="&lt;font style=&quot;font-size: 18px;&quot;&gt;N&lt;/font&gt;" style="edgeLabel;html=1;align=center;verticalAlign=middle;resizable=0;points=[];" parent="6Zg3kNEFJYCapv534Jjk-43" vertex="1" connectable="0">
          <mxGeometry x="-0.0762" y="4" relative="1" as="geometry">
            <mxPoint as="offset" />
          </mxGeometry>
        </mxCell>
        <mxCell id="6Zg3kNEFJYCapv534Jjk-41" value="&lt;span style=&quot;font-size: 18px;&quot;&gt;拥有&lt;/span&gt;" style="rhombus;whiteSpace=wrap;html=1;" parent="1" vertex="1">
          <mxGeometry x="200" y="400" width="80" height="80" as="geometry" />
        </mxCell>
        <mxCell id="6Zg3kNEFJYCapv534Jjk-46" style="edgeStyle=orthogonalEdgeStyle;rounded=0;orthogonalLoop=1;jettySize=auto;html=1;exitX=1;exitY=0.5;exitDx=0;exitDy=0;entryX=0;entryY=0.5;entryDx=0;entryDy=0;endArrow=none;endFill=0;" parent="1" source="6Zg3kNEFJYCapv534Jjk-44" target="6Zg3kNEFJYCapv534Jjk-40" edge="1">
          <mxGeometry relative="1" as="geometry" />
        </mxCell>
        <mxCell id="6Zg3kNEFJYCapv534Jjk-44" value="&lt;font style=&quot;font-size: 18px;&quot;&gt;日志标识符&lt;/font&gt;" style="ellipse;whiteSpace=wrap;html=1;" parent="1" vertex="1">
          <mxGeometry x="-10" y="540" width="120" height="80" as="geometry" />
        </mxCell>
        <mxCell id="6Zg3kNEFJYCapv534Jjk-45" value="&lt;font style=&quot;font-size: 18px;&quot;&gt;日志时间戳&lt;/font&gt;" style="ellipse;whiteSpace=wrap;html=1;" parent="1" vertex="1">
          <mxGeometry x="380" y="540" width="120" height="80" as="geometry" />
        </mxCell>
        <mxCell id="Qvd4GWLs-rVqjNRkkyem-1" value="&lt;font style=&quot;font-size: 18px;&quot;&gt;节点描述&lt;/font&gt;" style="ellipse;whiteSpace=wrap;html=1;" vertex="1" parent="1">
          <mxGeometry x="320" y="120" width="120" height="80" as="geometry" />
        </mxCell>
        <mxCell id="Qvd4GWLs-rVqjNRkkyem-3" value="&lt;div&gt;&lt;font style=&quot;font-size: 18px;&quot;&gt;操作状态&lt;/font&gt;&lt;/div&gt;&lt;div&gt;&lt;font style=&quot;font-size: 18px;&quot;&gt;（成功/失&lt;/font&gt;&lt;span style=&quot;font-size: medium; background-color: initial;&quot;&gt;败）&lt;/span&gt;&lt;/div&gt;" style="ellipse;whiteSpace=wrap;html=1;" vertex="1" parent="1">
          <mxGeometry x="-10" y="680" width="120" height="80" as="geometry" />
        </mxCell>
        <mxCell id="Qvd4GWLs-rVqjNRkkyem-4" value="&lt;font style=&quot;font-size: 18px;&quot;&gt;日志信息描述&lt;/font&gt;" style="ellipse;whiteSpace=wrap;html=1;" vertex="1" parent="1">
          <mxGeometry x="180" y="680" width="120" height="80" as="geometry" />
        </mxCell>
        <mxCell id="Qvd4GWLs-rVqjNRkkyem-7" value="&lt;font style=&quot;font-size: 18px;&quot;&gt;日志信息描述&lt;/font&gt;" style="ellipse;whiteSpace=wrap;html=1;" vertex="1" parent="1">
          <mxGeometry x="1100" y="260" width="120" height="80" as="geometry" />
        </mxCell>
      </root>
    </mxGraphModel>
  </diagram>
</mxfile>
